<mxfile host="app.diagrams.net" modified="2024-07-19T14:44:53.629Z" agent="Mozilla/5.0 (Windows NT 10.0; Win64; x64) AppleWebKit/537.36 (KHTML, like Gecko) Chrome/126.0.0.0 Safari/537.36 Edg/126.0.0.0" version="24.7.2" etag="-LtttDU-yAUTFb0KzJOc" type="github">
  <diagram name="第 1 页" id="JFX5gnTvYC6cHWWqPO7q">
    <mxGraphModel>
      <root>
        <mxCell id="0" />
        <mxCell id="1" parent="0" />
      </root>
    </mxGraphModel>
  </diagram>
</mxfile>
